<?xml version="1.0" encoding="UTF-8" standalone="no"?><svg xmlns="http://www.w3.org/2000/svg" xmlns:xlink="http://www.w3.org/1999/xlink" contentScriptType="text/ecmascript" fill="#cf0000" width="200" zoomAndPan="magnify" contentStyleType="text/css" viewBox="-0.0 0.1 200.0 199.8" height="199.8" preserveAspectRatio="xMidYMid meet" version="1"><g><g id="change1_1"><path d="M107.48,88.05c2.32-0.21,4.42,2.01,4.44,4.41c0.02,2.32-2.29,4.66-4.5,4.38c-2.07,0.28-4.44-2.05-4.41-4.41 C103.05,90.14,105.08,87.81,107.48,88.05z"/><path d="M92.11,88.07c2.45,0.01,4.39,2.02,4.37,4.39c-0.02,2.51-2.1,4.37-4.37,4.35c-2.31-0.02-4.38-1.81-4.37-4.41 C87.75,90.04,89.65,88.1,92.11,88.07z"/><path d="M103.13,107.8c0-2.46,1.89-4.37,4.31-4.37c2.52,0,4.34,1.84,4.37,4.35c0.03,2.49-1.97,4.37-4.36,4.38 C105.13,112.18,103.06,110.15,103.13,107.8z"/><path d="M96.33,107.79c0.06,2.33-1.86,4.22-4.21,4.23c-2.44,0.02-4.23-1.99-4.25-4.22c-0.01-2.33,1.89-4.25,4.24-4.25 C94.36,103.56,96.4,105.35,96.33,107.79z"/><path d="M126.89,92.45c-0.19,2.33-1.62,3.88-4.01,4.02c-1.09,0.06-2.1-0.38-2.9-1.18c-0.79-0.79-1.07-1.78-1.25-2.83 c0.31-2.5,1.67-3.82,4.15-4.13c1.03,0.18,2,0.47,2.78,1.23C126.47,90.35,126.76,91.36,126.89,92.45z"/><path d="M111.37,77.08c0.19,2.14-1.76,3.93-3.91,3.94c-2.25,0.01-3.97-1.9-3.97-3.95c0-2.17,1.8-3.98,3.98-3.97 C109.51,73.11,111.58,74.82,111.37,77.08z"/><path d="M122.82,111.71c-1.88,0.21-3.96-1.83-3.95-3.92c0.01-2.16,2.07-4,4.01-3.96c1.95,0.03,3.89,1.8,3.89,3.97 C126.77,109.89,124.91,111.87,122.82,111.71z"/><path d="M92.09,80.97c-2.21,0.08-3.9-1.9-3.91-3.89c-0.01-1.91,1.65-3.93,3.98-3.9c2.11,0.02,3.91,1.85,3.88,3.94 C96.01,79.15,94.24,81.06,92.09,80.97z"/><path d="M80.82,92.44c-0.18,2.24-1.67,3.74-3.84,3.79c-1.01,0.03-1.95-0.38-2.69-1.12c-0.74-0.73-1.18-1.69-1.12-2.68 c0.15-2.3,1.59-3.66,3.86-3.86C79.2,88.83,80.6,90.06,80.82,92.44z"/><path d="M107.42,119.07c1.04,0.08,1.94,0.41,2.68,1.1c0.79,0.73,1.07,1.69,1.23,2.71c-0.24,2.35-1.65,3.67-3.92,3.9 c-2.29-0.32-3.51-1.6-3.79-3.85c0.16-1.04,0.43-2.02,1.24-2.77C105.59,119.49,106.46,119.14,107.42,119.07z"/><path d="M77.05,111.48c-2.02,0.22-3.79-1.73-3.8-3.65c-0.01-2.03,1.89-3.77,3.73-3.79c1.9-0.02,3.75,1.79,3.75,3.72 C80.72,109.78,78.97,111.66,77.05,111.48z"/><path d="M92.09,126.58c-2.14,0.21-3.71-1.95-3.73-3.67c-0.03-2.04,1.89-3.78,3.77-3.75c1.86,0.03,3.72,1.61,3.71,3.73 C95.84,124.91,94.07,126.8,92.09,126.58z"/><path d="M122.82,80.74c-1.96,0.23-3.89-1.88-3.67-3.68c-0.22-1.76,1.66-3.72,3.71-3.68c2.12,0.05,3.66,1.81,3.68,3.62 C126.56,78.99,124.9,80.9,122.82,80.74z"/><path d="M80.58,77.07c-0.12,0.98-0.37,1.86-1.1,2.56c-0.7,0.67-1.58,1.05-2.48,1.04c-1.06-0.02-2.03-0.47-2.77-1.32 c-0.59-0.68-0.84-1.52-0.82-2.33c0.02-0.94,0.39-1.85,1.17-2.54c0.72-0.62,1.57-0.97,2.45-0.97c0.91,0.01,1.79,0.37,2.47,1.05 C80.21,75.26,80.45,76.16,80.58,77.07z"/><path d="M126.42,122.95c-0.12,0.89-0.4,1.74-1.05,2.45c-0.68,0.74-1.58,0.97-2.51,1.12c-2.26-0.26-3.4-1.51-3.65-3.66 c0.18-0.87,0.38-1.71,1.03-2.38c0.72-0.75,1.65-1.13,2.61-1.13c0.92,0,1.83,0.34,2.52,1.07 C126.03,121.12,126.33,121.96,126.42,122.95z"/><path d="M107.52,58.56c1.56-0.15,3.43,1.55,3.39,3.46c-0.04,1.77-1.72,3.4-3.46,3.38c-1.94-0.02-3.44-1.8-3.41-3.53 C104.08,60.03,105.86,58.39,107.52,58.56z"/><path d="M137.94,88.99c1.92-0.03,3.46,1.76,3.45,3.44c-0.01,1.69-1.55,3.42-3.48,3.4c-1.88-0.02-3.42-1.71-3.42-3.4 C134.48,90.75,136.02,88.96,137.94,88.99z"/><path d="M80.39,122.96c0.12,1.68-1.68,3.46-3.47,3.4c-1.74-0.06-3.37-1.67-3.36-3.49c0.01-1.89,1.75-3.4,3.51-3.37 C78.92,119.52,80.55,121.31,80.39,122.96z"/><path d="M137.95,104.42c2.08,0.04,3.4,1.62,3.4,3.35c0,1.89-1.42,3.42-3.41,3.42c-2,0-3.4-1.55-3.4-3.43 C134.54,106.02,135.87,104.45,137.95,104.42z"/><path d="M88.74,61.93c0.04-2.02,1.62-3.37,3.37-3.35c2.09,0.02,3.43,1.67,3.4,3.4c-0.03,1.93-1.53,3.38-3.45,3.37 C90.18,65.34,88.73,63.78,88.74,61.93z"/><path d="M125.99,61.96c0,1.9-1.31,3.21-3.2,3.21c-1.88,0-3.11-1.34-3.19-3.26c-0.07-1.54,1.43-3.19,3.24-3.19 C124.47,58.71,126.17,60.19,125.99,61.96z"/><path d="M137.95,80.27c-1.68,0.18-3.22-1.45-3.23-3.23c-0.01-1.76,1.6-3.2,3.24-3.19c1.57,0.01,3.2,1.4,3.2,3.17 C141.16,78.82,139.62,80.45,137.95,80.27z"/><path d="M110.66,138.28c0.12,1.56-1.48,3.22-3.23,3.18c-1.59-0.04-3.15-1.44-3.16-3.22c-0.01-1.68,1.64-3.21,3.19-3.2 C109.16,135.05,110.77,136.68,110.66,138.28z"/><path d="M64.81,92.44c0.09,1.77-1.57,3.17-3.16,3.18c-1.63,0.01-3.23-1.41-3.22-3.19c0.01-1.81,1.64-3.19,3.18-3.2 C63.19,89.21,64.9,90.61,64.81,92.44z"/><path d="M64.81,107.8c-0.08,1.88-1.49,3.15-3.16,3.16c-1.67,0.01-3.17-1.29-3.17-3.2c0-1.79,1.53-3.12,3.18-3.11 C63.29,104.66,64.78,106,64.81,107.8z"/><path d="M92.1,141.43c-1.79-0.07-3.11-1.4-3.12-3.17c-0.02-1.73,1.38-3.18,3.13-3.16c1.91,0.02,3.2,1.44,3.16,3.2 C95.23,140.05,94.08,141.3,92.1,141.43z"/><path d="M141.06,122.91c0.01,1.6-1.56,3.19-3.13,3.18c-1.56-0.02-3.12-1.56-3.09-3.14c0.04-1.87,1.41-3.13,3.09-3.14 C139.57,119.79,140.96,121.02,141.06,122.91z"/><path d="M76.97,65.06c-1.63,0-3.12-1.48-3.07-3.11c0.06-2,1.54-2.93,3.13-3.13c0.83,0.17,1.61,0.38,2.23,1.05 c0.56,0.6,0.7,1.34,0.87,2.08C79.9,63.59,78.93,64.99,76.97,65.06z"/><path d="M125.78,138.27c0.08,1.35-0.58,2.25-1.77,2.8c-0.17,0.08-0.36,0.12-0.55,0.14c-0.32,0.02-0.65,0.02-0.98,0.01 c-1.37-0.03-2.54-1.23-2.64-2.61c-0.08-1.05,0.19-1.92,0.99-2.63c0.43-0.38,0.9-0.65,1.48-0.67c0.55-0.02,1.11-0.09,1.65,0.14 C125.23,135.99,125.78,136.85,125.78,138.27z"/><path d="M64.59,77.11c0.19,1.39-1.43,2.99-3.01,2.96c-1.3-0.02-3.03-1.39-2.92-3.07c0.11-1.69,1.29-2.84,3.06-2.9 C63.26,74.06,64.77,75.62,64.59,77.11z"/><path d="M64.57,122.89c-0.15,1.63-1.19,2.9-2.91,2.92c-1.67,0.02-2.88-1.18-2.94-2.86c-0.05-1.61,1.2-2.9,2.85-2.95 C63.17,119.95,64.45,121.22,64.57,122.89z"/><path d="M79.9,138.3c-0.09,1.59-1.28,2.9-2.91,2.87c-1.74-0.04-2.93-1.35-2.91-2.95c0.02-1.61,1.29-2.84,2.84-2.85 C78.67,135.34,79.75,136.57,79.9,138.3z"/><path d="M140.82,61.95c-0.01,1.51-1.39,2.88-2.89,2.87c-1.53-0.02-2.88-1.39-2.86-2.9c0.02-1.46,1.41-2.84,2.87-2.85 C139.39,59.05,140.83,60.49,140.82,61.95z"/><path d="M153.3,95.14c-1.42,0.18-2.75-1.27-2.75-2.74c0-1.29,1.31-2.77,2.74-2.75c1.45,0.03,2.8,1.33,2.79,2.82 C156.07,93.8,154.77,95.31,153.3,95.14z"/><path d="M107.46,49.3c-1.4,0.19-2.77-1.27-2.74-2.73c0.02-1.39,1.21-2.73,2.74-2.71c1.47,0.01,2.77,1.12,2.77,2.8 C110.22,47.96,109.02,49.46,107.46,49.3z"/><path d="M150.59,107.82c-0.17-1.46,1.18-2.75,2.7-2.76c1.53,0,2.79,1.35,2.77,2.73c-0.01,1.54-1.32,2.72-2.72,2.75 C151.77,110.58,150.43,109.22,150.59,107.82z"/><path d="M92.1,49.3c-1.37,0.2-2.74-1.24-2.72-2.69c0.02-1.58,1.26-2.78,2.75-2.76c1.67,0.02,2.7,1.24,2.73,2.78 C94.89,48.14,93.49,49.48,92.1,49.3z"/><path d="M61.61,64.61c-1.56,0.05-2.72-1.45-2.68-2.67c0.05-1.44,1.2-2.69,2.75-2.66c1.51,0.03,2.63,1.26,2.65,2.7 C64.35,63.21,63.19,64.68,61.61,64.61z"/><path d="M150.61,77.09c0.05-1.55,1.25-2.67,2.65-2.71c1.3-0.04,2.7,1.13,2.75,2.64c0.05,1.41-1.28,2.78-2.7,2.75 C151.86,79.75,150.69,78.61,150.61,77.09z"/><path d="M125.52,46.56c-0.08,1.55-1.15,2.71-2.69,2.71c-1.64,0-2.64-1.22-2.7-2.65c-0.05-1.31,1.05-2.65,2.67-2.68 C124.25,43.92,125.49,45.13,125.52,46.56z"/><path d="M135.27,138.2c0.14-1.57,1.25-2.65,2.72-2.63c1.48,0.03,2.63,1.17,2.61,2.72c-0.02,1.49-1.16,2.69-2.73,2.65 C136.36,140.9,135.32,139.69,135.27,138.2z"/><path d="M153.24,125.41c-1.47-0.01-2.44-1.04-2.42-2.59c0.01-1.5,0.98-2.33,2.54-2.42c1.18-0.07,2.56,1.18,2.47,2.53 C155.73,124.37,154.72,125.42,153.24,125.41z"/><path d="M79.47,46.6c0.19,1.33-1.17,2.51-2.45,2.51c-1.41,0-2.54-1.2-2.54-2.48c0-1.43,1.11-2.55,2.53-2.56 C78.28,44.07,79.65,45.22,79.47,46.6z"/><path d="M43.8,107.77c-0.19-1.3,1.13-2.49,2.48-2.48c1.37,0.01,2.52,1.13,2.52,2.5c0,1.56-1.28,2.53-2.56,2.53 C45.08,110.32,43.63,109.3,43.8,107.77z"/><path d="M43.8,92.42c-0.17-1.33,1.11-2.51,2.47-2.5c1.47,0.01,2.53,1.21,2.52,2.5c-0.01,1.21-0.98,2.53-2.55,2.52 C44.94,94.93,43.63,93.76,43.8,92.42z"/><path d="M107.4,156.08c-1.17,0.17-2.53-1.06-2.44-2.51c0.09-1.46,1.02-2.33,2.55-2.42c1.2-0.07,2.51,1.11,2.49,2.51 C109.99,154.87,108.84,156.27,107.4,156.08z"/><path d="M92.1,151.17c1.52-0.16,2.53,1.21,2.54,2.43c0.01,1.24-1,2.52-2.55,2.51c-1.33-0.01-2.48-1.13-2.48-2.5 C89.61,152.29,90.74,150.99,92.1,151.17z"/><path d="M61.64,140.74c-1.39,0.12-2.49-1.34-2.51-2.46c-0.02-1.39,1.44-2.59,2.53-2.53c1.35,0.08,2.39,1.15,2.46,2.52 C64.18,139.4,63.02,140.86,61.64,140.74z"/><path d="M48.7,77.07c0.13,1.11-1.14,2.49-2.44,2.48c-1.39-0.01-2.46-1.48-2.45-2.44c0-1.09,1.08-2.5,2.5-2.51 C47.49,74.59,48.79,75.87,48.7,77.07z"/><path d="M122.84,156.06c-1.17,0.06-2.43-1.14-2.45-2.4c-0.02-1.31,1.27-2.5,2.44-2.47c1.2,0.03,2.42,1.02,2.45,2.4 C125.3,155,124.06,156.05,122.84,156.06z"/><path d="M46.27,125.29c-1.23,0-2.43-1.19-2.42-2.4c0.01-1.2,1.24-2.43,2.42-2.41c1.22,0.01,2.46,1.21,2.4,2.41 C48.6,124.22,47.67,125.17,46.27,125.29z"/><path d="M74.59,153.6c0.01-1.23,1.25-2.44,2.43-2.39c1.26,0.05,2.42,1.23,2.4,2.43c-0.02,1.22-1.22,2.39-2.44,2.39 C75.78,156.04,74.58,154.82,74.59,153.6z"/><path d="M137.97,44.2c1.22,0.02,2.41,1.23,2.39,2.44c-0.02,1.22-1.25,2.42-2.44,2.39c-1.21-0.03-2.42-1.26-2.39-2.44 C135.57,45.35,136.77,44.18,137.97,44.2z"/><path d="M155.69,61.94c-0.1,1.44-1.1,2.32-2.39,2.4c-1.19,0.08-2.39-1.15-2.42-2.39c-0.03-1.18,1.19-2.41,2.4-2.43 C154.47,59.51,155.68,60.72,155.69,61.94z"/><path d="M155.49,138.25c0,1.27-0.95,2.21-2.19,2.26c-1.08,0.04-2.29-1.17-2.25-2.25c0.05-1.24,0.99-2.14,2.26-2.2 C154.41,136.01,155.62,137.16,155.49,138.25z"/><path d="M137.93,155.82c-1.31-0.17-2.14-0.88-2.15-2.19c-0.01-1.32,0.89-2.19,2.2-2.16c1.31,0.03,2.14,0.88,2.12,2.18 C140.08,154.96,139.24,155.66,137.93,155.82z"/><path d="M166.5,92.42c0.06-1.16,0.87-2.16,2.17-2.15c1.36,0.01,2.18,1.08,2.18,2.15c0,1.19-0.87,2.15-2.14,2.19 C167.63,94.66,166.55,93.77,166.5,92.42z"/><path d="M109.63,31.25c-0.11,1.29-0.93,2.15-2.18,2.17c-1.07,0.01-2.13-0.82-2.12-2.19c0.01-1.34,1.02-2.15,2.09-2.16 C108.67,29.05,109.54,29.93,109.63,31.25z"/><path d="M48.46,61.97c0,1.08-1.05,2.15-2.13,2.16c-1.14,0.02-2.31-1.06-2.23-2.18c0.09-1.29,0.86-2.07,2.16-2.19 C47.36,59.67,48.45,60.82,48.46,61.97z"/><path d="M61.66,44.42c1.21,0.16,2.12,0.85,2.11,2.21c-0.01,1.32-1.01,2.17-2.17,2.14c-1.22-0.03-2.17-0.93-2.11-2.26 C59.56,45.16,60.5,44.54,61.66,44.42z"/><path d="M94.1,31.24c0.19,1.13-1.01,2.11-2.02,2.05c-1.18-0.08-1.97-0.83-1.97-2.05c0-1.24,0.79-2.04,2.03-2.03 C93.37,29.22,94.1,29.98,94.1,31.24z"/><path d="M168.68,105.79c1.15-0.15,2.02,1.01,2.02,2c0,1.05-0.87,2.02-2.09,2.02c-1.09,0-2.03-1.03-2.01-2.06 C166.63,106.86,167.44,105.61,168.68,105.79z"/><path d="M61.62,151.64c1.07-0.12,2.05,1.09,2.05,1.97c0.01,0.93-1.01,2.02-2.03,2.02c-1.07,0.01-2.05-1.12-2.05-2 C59.59,152.71,60.6,151.52,61.62,151.64z"/><path d="M124.83,31.24c0.09,1.04-1.03,2.01-2.01,2.02c-0.88,0.01-1.99-0.89-1.97-2.06c0.02-1.1,1.09-2,1.98-1.99 C123.79,29.23,124.92,30.2,124.83,31.24z"/><path d="M46.26,136.31c1.16-0.11,1.98,0.98,2,1.91c0.02,1.14-0.99,2.06-1.89,2.05c-1.11-0.01-2.11-0.85-2.09-1.98 C44.3,137.14,45.1,136.31,46.26,136.31z"/><path d="M168.66,79.02c-1.07,0.12-2.02-0.93-1.97-1.93c0.06-1.13,0.88-2.03,1.98-2.02c1.12,0.01,2,0.9,1.99,2.03 C170.64,78.09,169.87,79.1,168.66,79.02z"/><path d="M109.39,168.76c-0.07,1.17-0.82,1.81-1.92,1.91c-0.98,0.09-1.97-0.94-1.98-1.93c-0.01-0.96,1.04-2.06,1.97-1.97 C108.52,166.87,109.34,167.55,109.39,168.76z"/><path d="M168.63,124.84c-0.97-0.01-1.94-0.97-1.89-1.94c0.05-1.16,0.84-1.95,1.94-1.93c1.17,0.02,1.93,0.82,1.92,1.95 C170.58,124.11,169.7,124.79,168.63,124.84z"/><path d="M78.97,31.27c-0.02,0.94-1.1,1.99-2.01,1.95c-0.96-0.04-1.94-1.09-1.91-2.04c0.03-0.93,1.06-1.94,1.96-1.93 C77.95,29.27,78.98,30.33,78.97,31.27z"/><path d="M155.24,46.61c-0.06,1.15-0.97,1.97-1.96,1.94c-1.11-0.03-1.89-0.89-1.93-1.98c-0.03-1.01,0.99-1.96,1.99-1.91 C154.39,44.72,155.25,45.61,155.24,46.61z"/><path d="M31.15,90.49c1.01,0.02,2.02,0.99,1.96,1.96c-0.07,1.13-0.91,1.94-1.97,1.94c-1.05,0-1.9-0.85-1.91-1.99 C29.21,91.36,30.15,90.55,31.15,90.49z"/><path d="M31.17,109.55c-1.06,0.12-1.79-0.74-1.8-1.74c-0.01-1.15,0.87-1.8,1.77-1.81c1.05-0.01,1.81,0.8,1.81,1.78 C32.95,108.73,32.27,109.67,31.17,109.55z"/><path d="M92.09,170.48c-1.08,0.11-1.77-0.79-1.77-1.78c0.01-1.07,0.82-1.77,1.78-1.74c1.14,0.04,1.72,0.64,1.78,1.78 C93.93,169.75,93.18,170.6,92.09,170.48z"/><path d="M76.94,170.46c-0.97-0.01-1.7-0.77-1.68-1.78c0.01-0.96,0.76-1.68,1.73-1.7c0.88-0.02,1.83,0.84,1.77,1.81 C78.7,169.74,77.95,170.47,76.94,170.46z"/><path d="M46.53,48.36c-0.91,0.1-1.78-0.85-1.77-1.73c0.01-0.99,0.74-1.75,1.73-1.76c1-0.01,1.7,0.73,1.76,1.71 C48.31,47.45,47.35,48.48,46.53,48.36z"/><path d="M168.67,63.69c-0.98,0-1.73-0.75-1.73-1.74c0-0.97,0.78-1.7,1.73-1.77c0.82-0.05,1.79,0.9,1.76,1.77 C170.39,62.95,169.67,63.68,168.67,63.69z"/><path d="M29.42,77.05c-0.09-1.02,0.98-1.76,1.76-1.75c0.96,0.01,1.68,0.81,1.75,1.77c0.06,0.82-0.9,1.75-1.78,1.74 C30.32,78.81,29.27,77.91,29.42,77.05z"/><path d="M122.77,170.46c-0.96-0.01-1.68-0.78-1.67-1.78c0.02-0.96,0.78-1.7,1.73-1.69c1.01,0.01,1.74,0.79,1.76,1.81 C124.6,169.63,123.74,170.57,122.77,170.46z"/><path d="M155.03,153.63c0,0.97-0.77,1.7-1.75,1.74c-1.05,0.04-1.75-0.97-1.74-1.76c0.01-0.77,0.69-1.78,1.76-1.74 C154.26,151.92,155.03,152.66,155.03,153.63z"/><path d="M139.68,31.25c0.09,0.88-0.78,1.72-1.75,1.71c-0.94-0.01-1.75-0.82-1.75-1.74c0.01-0.87,0.8-1.72,1.77-1.71 C138.89,29.52,139.79,30.34,139.68,31.25z"/><path d="M63.31,31.26c-0.01,0.89-0.83,1.67-1.72,1.65c-0.89-0.02-1.67-0.84-1.64-1.73c0.03-0.86,0.82-1.63,1.69-1.63 C62.53,29.57,63.32,30.37,63.31,31.26z"/><path d="M31.16,121.24c1.01,0.04,1.65,0.76,1.71,1.68c0.05,0.79-0.88,1.66-1.68,1.68c-0.87,0.02-1.75-0.85-1.74-1.73 C29.45,122.05,30.29,121.25,31.16,121.24z"/><path d="M170.32,138.28c0,0.87-0.79,1.66-1.66,1.65c-0.86-0.01-1.69-0.82-1.7-1.64c0-0.87,0.87-1.74,1.74-1.72 C169.53,136.59,170.32,137.43,170.32,138.28z"/><path d="M46.34,151.88c0.89,0.01,1.45,0.62,1.44,1.55c-0.01,0.92-0.62,1.5-1.57,1.48c-0.87-0.01-1.41-0.66-1.47-1.56 C44.7,152.58,45.47,151.76,46.34,151.88z"/><path d="M32.68,62.04c-0.01,0.87-0.63,1.44-1.57,1.43c-0.92-0.01-1.48-0.62-1.46-1.59c0.02-0.9,0.62-1.45,1.56-1.44 C32.1,60.45,32.7,61.1,32.68,62.04z"/><path d="M139.46,168.78c0.15,0.75-0.77,1.54-1.53,1.47c-0.91-0.07-1.5-0.6-1.5-1.51c0-0.92,0.61-1.54,1.53-1.53 C138.86,167.22,139.47,167.85,139.46,168.78z"/><path d="M183.78,106.29c0.69,0,1.53,0.8,1.5,1.49c-0.03,0.74-0.61,1.45-1.47,1.49c-0.76,0.04-1.54-0.73-1.51-1.49 C182.34,106.92,183.03,106.37,183.78,106.29z"/><path d="M93.6,16.12c-0.11,0.93-0.61,1.44-1.53,1.46c-0.87,0.01-1.47-0.85-1.46-1.49c0.01-0.69,0.84-1.48,1.52-1.46 C92.88,14.65,93.6,15.38,93.6,16.12z"/><path d="M183.76,90.96c0.82,0.03,1.49,0.75,1.52,1.45c0.03,0.69-0.75,1.49-1.46,1.52c-0.73,0.03-1.54-0.7-1.52-1.44 C182.33,91.56,182.84,91.09,183.76,90.96z"/><path d="M32.66,138.25c0.01,0.67-0.8,1.5-1.48,1.51c-0.71,0.02-1.49-0.74-1.51-1.46c-0.02-0.78,0.68-1.52,1.48-1.51 C31.97,136.82,32.61,137.54,32.66,138.25z"/><path d="M63.09,168.78c-0.01,0.85-0.72,1.46-1.48,1.44c-0.81-0.02-1.45-0.67-1.43-1.49c0.01-0.78,0.73-1.48,1.48-1.46 C62.43,167.28,63.11,167.99,63.09,168.78z"/><path d="M106.02,16.1c0.01-0.78,0.74-1.53,1.48-1.48c0.8,0.06,1.44,0.71,1.43,1.52c-0.01,0.82-0.63,1.45-1.47,1.44 C106.63,17.57,106.01,16.93,106.02,16.1z"/><path d="M76.97,17.39c-0.86,0-1.21-0.41-1.26-1.27c-0.05-0.75,0.63-1.34,1.27-1.31c0.79,0.04,1.26,0.49,1.31,1.28 C78.33,16.85,77.72,17.49,76.97,17.39z"/><path d="M121.56,16.11c-0.12-0.71,0.64-1.3,1.28-1.31c0.65-0.01,1.35,0.67,1.31,1.31c-0.06,0.83-0.49,1.25-1.35,1.3 C122.1,17.44,121.45,16.91,121.56,16.11z"/><path d="M168.66,45.33c0.81-0.09,1.31,0.59,1.3,1.26c-0.01,0.82-0.5,1.29-1.33,1.31c-0.7,0.02-1.27-0.49-1.24-1.31 C167.43,45.73,167.8,45.33,168.66,45.33z"/><path d="M183.76,78.33c-0.86,0-1.27-0.42-1.26-1.27c0-0.8,0.49-1.29,1.28-1.29c0.79,0,1.27,0.5,1.27,1.31 C185.06,77.91,184.62,78.33,183.76,78.33z"/><path d="M183.78,124.17c-0.66,0.08-1.34-0.43-1.29-1.25c0.04-0.81,0.48-1.29,1.28-1.3c0.8-0.01,1.27,0.48,1.3,1.29 C185.09,123.67,184.55,124.24,183.78,124.17z"/><path d="M154.56,31.23c0,0.81-0.45,1.31-1.18,1.32c-0.8,0.01-1.36-0.51-1.36-1.29c-0.01-0.79,0.53-1.32,1.34-1.32 C154.09,29.93,154.56,30.43,154.56,31.23z"/><path d="M32.4,46.62c0,0.56-0.68,1.23-1.24,1.23c-0.59,0-1.28-0.7-1.26-1.28c0.02-0.59,0.66-1.21,1.24-1.22 C31.75,45.34,32.41,46.01,32.4,46.62z"/><path d="M168.62,154.89c-0.55-0.01-1.2-0.7-1.2-1.26c0-0.59,0.69-1.28,1.26-1.26c0.6,0.02,1.18,0.65,1.18,1.26 C169.87,154.26,169.24,154.9,168.62,154.89z"/><path d="M15.79,109.04c-0.57,0-1.21-0.65-1.21-1.25c-0.01-0.63,0.63-1.26,1.26-1.25c0.58,0.01,1.19,0.67,1.18,1.27 C17,108.41,16.36,109.05,15.79,109.04z"/><path d="M154.54,168.75c-0.01,0.61-0.68,1.26-1.28,1.24c-0.59-0.02-1.17-0.67-1.16-1.29c0.01-0.58,0.62-1.21,1.18-1.22 C153.86,167.47,154.54,168.15,154.54,168.75z"/><path d="M92.12,182.87c0.59,0.01,1.24,0.64,1.25,1.21c0,0.6-0.67,1.24-1.29,1.23c-0.58-0.01-1.2-0.62-1.21-1.18 C90.86,183.5,91.49,182.87,92.12,182.87z"/><path d="M47.76,31.23c0,0.57-0.64,1.23-1.22,1.23c-0.61,0.01-1.29-0.66-1.28-1.25c0.02-0.57,0.68-1.2,1.26-1.21 C47.11,30.01,47.76,30.66,47.76,31.23z"/><path d="M15.85,93.69c-0.56,0.02-1.24-0.62-1.27-1.2c-0.03-0.61,0.59-1.29,1.21-1.31c0.57-0.02,1.21,0.61,1.24,1.22 C17.04,92.97,16.4,93.68,15.85,93.69z"/><path d="M107.46,185.32c-0.55,0-1.19-0.62-1.2-1.18c-0.01-0.6,0.6-1.25,1.17-1.27c0.62-0.01,1.26,0.62,1.27,1.24 C108.7,184.69,108.05,185.31,107.46,185.32z"/><path d="M183.78,62.99c-0.59,0.01-1.03-0.4-1.05-0.98c-0.02-0.6,0.42-1.09,1-1.1c0.6-0.02,1.07,0.43,1.08,1.02 C184.83,62.54,184.4,62.98,183.78,62.99z"/><path d="M138.98,16.11c-0.01,0.63-0.43,1.04-1.06,1.03c-0.62-0.01-1.03-0.44-1.01-1.07c0.01-0.57,0.46-0.99,1.05-0.98 C138.55,15.1,138.98,15.53,138.98,16.11z"/><path d="M32.2,153.38c0,0.6-0.45,1.05-1.05,1.04c-0.56-0.01-1.02-0.45-1.03-1.01c-0.01-0.58,0.46-1.07,1.03-1.08 C31.73,152.33,32.2,152.79,32.2,153.38z"/><path d="M182.74,138.24c0.01-0.59,0.46-0.98,1.08-1.01c0.5-0.03,1.05,0.52,1.01,1.09c-0.04,0.56-0.48,0.99-1.05,0.99 C183.19,139.3,182.73,138.83,182.74,138.24z"/><path d="M47.31,168.72c0.01,0.61-0.42,1.04-1.03,1.04c-0.6,0-1.05-0.45-1.06-1.04c0-0.56,0.43-1,1.01-1.02 C46.84,167.7,47.3,168.13,47.31,168.72z"/><path d="M75.96,184.09c0-0.6,0.44-0.98,1.06-1.02c0.56-0.03,1.06,0.57,1.03,1.06c-0.03,0.53-0.5,0.99-1.04,1.01 C76.52,185.17,75.88,184.6,75.96,184.09z"/><path d="M122.83,183.08c0.66-0.06,1.03,0.52,1.03,1.05c0,0.55-0.48,1.03-1.02,1.02c-0.55-0.01-1.02-0.47-1.03-1.02 C121.79,183.52,122.21,183.09,122.83,183.08z"/><path d="M15.77,123.93c-0.57-0.01-0.99-0.45-0.99-1.03c0.01-0.61,0.44-1.04,1.05-1.04c0.53,0.01,1,0.51,1.02,1.04 C16.87,123.36,16.29,124.03,15.77,123.93z"/><path d="M62.64,16.12c-0.01,0.6-0.41,1.02-1,1.02c-0.61,0-0.99-0.43-1.02-1.06c-0.02-0.54,0.45-1,1.03-0.99 C62.15,15.11,62.7,15.49,62.64,16.12z"/><path d="M15.81,78.09c-0.58,0-0.98-0.42-1.03-1c-0.04-0.53,0.57-1.09,1.05-1.07c0.45,0.02,1.01,0.54,1.02,1 C16.87,77.58,16.38,78.08,15.81,78.09z"/><path d="M137.05,184.1c0.02-0.46,0.5-0.96,0.92-0.93c0.44,0.03,0.88,0.53,0.86,0.99c-0.02,0.42-0.52,0.89-0.92,0.87 C137.48,184.99,137.04,184.52,137.05,184.1z"/><path d="M184.68,46.66c-0.03,0.42-0.52,0.87-0.94,0.85c-0.43-0.02-0.87-0.5-0.85-0.93c0.03-0.5,0.47-0.89,0.96-0.85 C184.32,45.77,184.71,46.2,184.68,46.66z"/><path d="M15.83,62.83c-0.47,0.01-0.97-0.45-0.97-0.89c0-0.38,0.58-0.9,0.99-0.89c0.36,0.01,0.86,0.51,0.87,0.88 C16.73,62.34,16.25,62.83,15.83,62.83z"/><path d="M153.31,16.99c-0.47,0.01-0.92-0.41-0.91-0.86c0.01-0.42,0.45-0.88,0.88-0.91c0.41-0.03,0.97,0.5,0.96,0.9 C154.23,16.54,153.76,16.98,153.31,16.99z"/><path d="M16.72,138.3c-0.01,0.36-0.58,0.89-0.95,0.87c-0.39-0.02-0.91-0.56-0.9-0.92c0.02-0.39,0.62-0.95,0.98-0.92 C16.2,137.36,16.73,137.95,16.72,138.3z"/><path d="M169.57,31.48c0,0.38-0.55,0.94-0.9,0.93c-0.36-0.01-0.94-0.56-0.95-0.9c-0.01-0.36,0.58-0.96,0.95-0.95 C169.05,30.56,169.57,31.09,169.57,31.48z"/><path d="M200,92.45c0,0.48-0.42,0.9-0.87,0.88c-0.42-0.02-0.89-0.49-0.89-0.91c-0.01-0.45,0.42-0.87,0.9-0.85 C199.65,91.58,200,91.93,200,92.45z"/><path d="M61.65,183.18c0.39,0.01,0.93,0.6,0.9,0.97c-0.03,0.35-0.55,0.84-0.9,0.85c-0.36,0.01-0.92-0.52-0.93-0.88 C60.71,183.74,61.28,183.17,61.65,183.18z"/><path d="M199.77,77.08c-0.01,0.34-0.4,0.73-0.69,0.71c-0.26-0.03-0.63-0.46-0.63-0.74c0.01-0.28,0.42-0.68,0.69-0.66 C199.48,76.4,199.79,76.74,199.77,77.08z"/><path d="M183.79,152.96c0.33,0.01,0.67,0.36,0.66,0.68c-0.01,0.33-0.35,0.66-0.68,0.65c-0.34-0.01-0.65-0.33-0.64-0.68 C183.13,153.26,183.45,152.95,183.79,152.96z"/><path d="M168.42,169.38c-0.35-0.01-0.74-0.38-0.71-0.69c0.02-0.26,0.46-0.64,0.73-0.63c0.28,0,0.68,0.41,0.67,0.68 C169.09,169.07,168.75,169.39,168.42,169.38z"/><path d="M15.82,45.95c0.32,0,0.68,0.36,0.67,0.67c-0.01,0.26-0.39,0.63-0.65,0.65c-0.27,0.01-0.72-0.37-0.75-0.63 C15.07,46.35,15.49,45.96,15.82,45.95z"/><path d="M108.18,199.24c0,0.26-0.44,0.65-0.72,0.65c-0.28,0-0.69-0.41-0.68-0.68c0.01-0.3,0.35-0.63,0.64-0.64 C107.76,198.56,108.18,198.93,108.18,199.24z"/><path d="M107.46,1.43c-0.28,0.01-0.69-0.4-0.68-0.68c0.01-0.3,0.34-0.63,0.64-0.64c0.34-0.01,0.76,0.36,0.76,0.66 C108.17,1.03,107.74,1.43,107.46,1.43z"/><path d="M153.93,184.14c-0.01,0.32-0.37,0.66-0.67,0.65c-0.25-0.01-0.64-0.41-0.64-0.65c-0.01-0.3,0.41-0.76,0.67-0.75 C153.61,183.4,153.94,183.79,153.93,184.14z"/><path d="M92.77,0.77c0,0.33-0.34,0.67-0.66,0.66c-0.3,0-0.67-0.38-0.66-0.68c0.01-0.32,0.35-0.65,0.68-0.65 C92.46,0.11,92.77,0.43,92.77,0.77z"/><path d="M76.99,1.44c-0.32-0.01-0.65-0.36-0.64-0.68c0.01-0.34,0.33-0.65,0.67-0.64c0.33,0.01,0.66,0.35,0.65,0.67 C77.66,1.08,77.28,1.45,76.99,1.44z"/><path d="M31.15,31.94c-0.31,0-0.64-0.36-0.64-0.7c0-0.34,0.33-0.7,0.64-0.7c0.27,0,0.66,0.41,0.66,0.7 C31.82,31.53,31.42,31.94,31.15,31.94z"/><path d="M122.87,0.11c0.33,0.02,0.66,0.37,0.64,0.68c-0.02,0.29-0.41,0.65-0.7,0.64c-0.33-0.02-0.64-0.36-0.62-0.7 C122.2,0.39,122.53,0.09,122.87,0.11z"/><path d="M46.54,16.76c-0.35,0.01-0.68-0.28-0.7-0.62c-0.01-0.27,0.36-0.68,0.65-0.7c0.32-0.02,0.66,0.3,0.67,0.65 C47.17,16.46,46.91,16.75,46.54,16.76z"/><path d="M199.13,108.44c-0.33,0.01-0.67-0.32-0.68-0.64c-0.01-0.29,0.36-0.66,0.66-0.68c0.32-0.01,0.66,0.32,0.66,0.66 C199.78,108.13,199.48,108.44,199.13,108.44z"/><path d="M31.14,168.05c0.29-0.01,0.67,0.35,0.68,0.66c0.02,0.32-0.32,0.66-0.65,0.67c-0.35,0.01-0.66-0.29-0.67-0.64 C30.49,168.41,30.82,168.07,31.14,168.05z"/><path d="M199.77,122.95c-0.03,0.37-0.33,0.63-0.71,0.59c-0.32-0.03-0.63-0.36-0.61-0.66c0.02-0.29,0.44-0.68,0.71-0.65 C199.51,122.26,199.8,122.61,199.77,122.95z"/><path d="M1.31,92.42c0.01,0.35-0.3,0.69-0.63,0.7c-0.28,0-0.69-0.4-0.68-0.68c0.01-0.3,0.34-0.63,0.64-0.64 C1.01,91.77,1.3,92.04,1.31,92.42z"/><path d="M0.16,107.75c-0.01-0.34,0.24-0.63,0.53-0.62c0.3,0.01,0.61,0.33,0.62,0.65c0.01,0.33-0.27,0.65-0.59,0.66 C0.47,108.45,0.17,108.08,0.16,107.75z"/><path d="M92.76,199.25c-0.01,0.29-0.19,0.44-0.48,0.39c-0.19-0.03-0.38-0.05-0.56-0.11c-0.28-0.08-0.35-0.26-0.23-0.53 c0.14-0.31,0.45-0.48,0.74-0.41C92.54,198.65,92.78,198.96,92.76,199.25z"/><path d="M137.64,0.49c0.15,0.08,0.36,0.15,0.51,0.28c0.12,0.1,0.17,0.27,0.25,0.41c-0.16,0.09-0.31,0.23-0.48,0.25 c-0.27,0.04-0.6-0.29-0.64-0.56C137.26,0.64,137.4,0.47,137.64,0.49z"/><path d="M199.25,62.33c-0.01,0.03-0.04,0.2-0.11,0.23c-0.1,0.04-0.26-0.02-0.36-0.08c-0.11-0.07-0.22-0.18-0.25-0.3 c-0.03-0.17-0.01-0.36,0.04-0.53c0.02-0.07,0.19-0.17,0.26-0.15c0.22,0.04,0.35,0.21,0.38,0.44 C199.22,62.04,199.23,62.14,199.25,62.33z"/></g></g></svg>